<svg xmlns="http://www.w3.org/2000/svg" xmlns:xlink="http://www.w3.org/1999/xlink" version="1.1" width="256" height="256" viewBox="0 0 256 256" xml:space="preserve">
<g style="stroke: none; stroke-width: 0; stroke-dasharray: none; stroke-linecap: butt; stroke-linejoin: miter; stroke-miterlimit: 10; fill: none; fill-rule: nonzero; opacity: 1;" transform="translate(1.4065934065934016 1.4065934065934016) scale(2.81 2.81)">
	<polygon points="74.1,13.41 61.33,13.41 61.33,1.71 63.33,1.71 63.33,11.41 74.1,11.41 " style="stroke: none; stroke-width: 1; stroke-dasharray: none; stroke-linecap: butt; stroke-linejoin: miter; stroke-miterlimit: 10; fill: rgb(0,0,0); fill-rule: nonzero; opacity: 1;" transform="  matrix(1 0 0 1 0 0) "/>
	<path d="M 30.531 34.308 c 7.999 0.989 14.212 7.827 14.212 16.089 c 0 8.939 -7.273 16.212 -16.212 16.212 c -8.262 0 -15.101 -6.213 -16.089 -14.212 h 16.089 h 2 v -2 V 34.308 M 28.531 32.185 v 18.212 H 10.319 c 0 10.058 8.154 18.212 18.212 18.212 s 18.212 -8.154 18.212 -18.212 S 38.59 32.185 28.531 32.185 L 28.531 32.185 z" style="stroke: none; stroke-width: 1; stroke-dasharray: none; stroke-linecap: butt; stroke-linejoin: miter; stroke-miterlimit: 10; fill: rgb(0,0,0); fill-rule: nonzero; opacity: 1;" transform=" matrix(1 0 0 1 0 0) " stroke-linecap="round"/>
	<path d="M 21.967 30.417 v 14.089 H 7.878 C 8.786 37.163 14.624 31.325 21.967 30.417 M 23.967 28.295 c -10.058 0 -18.212 8.154 -18.212 18.212 h 18.212 V 28.295 L 23.967 28.295 z" style="stroke: none; stroke-width: 1; stroke-dasharray: none; stroke-linecap: butt; stroke-linejoin: miter; stroke-miterlimit: 10; fill: rgb(0,0,0); fill-rule: nonzero; opacity: 1;" transform=" matrix(1 0 0 1 0 0) " stroke-linecap="round"/>
	<rect x="52.19" y="39.05" rx="0" ry="0" width="17.12" height="2" style="stroke: none; stroke-width: 1; stroke-dasharray: none; stroke-linecap: butt; stroke-linejoin: miter; stroke-miterlimit: 10; fill: rgb(0,0,0); fill-rule: nonzero; opacity: 1;" transform=" matrix(1 0 0 1 0 0) "/>
	<path d="M 74.459 11.284 L 63.422 1.018 C 62.718 0.364 61.792 0 60.831 0 H 18.132 c -2.101 0 -3.804 1.703 -3.804 3.804 v 23.491 h 2 V 3.804 C 16.328 2.809 17.137 2 18.132 2 h 42.699 c 0.457 0 0.894 0.172 1.228 0.483 l 11.037 10.266 c 0.366 0.34 0.575 0.821 0.575 1.321 v 72.127 c 0 0.995 -0.809 1.804 -1.804 1.804 H 18.132 c -0.995 0 -1.804 -0.809 -1.804 -1.804 V 68.609 h -2 v 17.587 c 0 2.101 1.703 3.804 3.804 3.804 h 53.736 c 2.101 0 3.804 -1.703 3.804 -3.804 V 14.069 C 75.672 13.013 75.232 12.004 74.459 11.284 z" style="stroke: none; stroke-width: 1; stroke-dasharray: none; stroke-linecap: butt; stroke-linejoin: miter; stroke-miterlimit: 10; fill: rgb(0,0,0); fill-rule: nonzero; opacity: 1;" transform=" matrix(1 0 0 1 0 0) " stroke-linecap="round"/>
	<rect x="52.19" y="48.05" rx="0" ry="0" width="17.12" height="2" style="stroke: none; stroke-width: 1; stroke-dasharray: none; stroke-linecap: butt; stroke-linejoin: miter; stroke-miterlimit: 10; fill: rgb(0,0,0); fill-rule: nonzero; opacity: 1;" transform=" matrix(1 0 0 1 0 0) "/>
	<rect x="52.19" y="57.05" rx="0" ry="0" width="17.12" height="2" style="stroke: none; stroke-width: 1; stroke-dasharray: none; stroke-linecap: butt; stroke-linejoin: miter; stroke-miterlimit: 10; fill: rgb(0,0,0); fill-rule: nonzero; opacity: 1;" transform=" matrix(1 0 0 1 0 0) "/>
	<rect x="52.19" y="66.05" rx="0" ry="0" width="17.12" height="2" style="stroke: none; stroke-width: 1; stroke-dasharray: none; stroke-linecap: butt; stroke-linejoin: miter; stroke-miterlimit: 10; fill: rgb(0,0,0); fill-rule: nonzero; opacity: 1;" transform=" matrix(1 0 0 1 0 0) "/>
	<rect x="60.02" y="30.05" rx="0" ry="0" width="9.28" height="2" style="stroke: none; stroke-width: 1; stroke-dasharray: none; stroke-linecap: butt; stroke-linejoin: miter; stroke-miterlimit: 10; fill: rgb(0,0,0); fill-rule: nonzero; opacity: 1;" transform=" matrix(1 0 0 1 0 0) "/>
</g>
</svg>